<?xml version="1.0" standalone="no"?>
<!DOCTYPE svg PUBLIC "-//W3C//DTD SVG 20010904//EN"
 "http://www.w3.org/TR/2001/REC-SVG-20010904/DTD/svg10.dtd">
<svg version="1.0" xmlns="http://www.w3.org/2000/svg"
 width="450.000000pt" height="300.000000pt" viewBox="0 0 450.000000 300.000000"
 preserveAspectRatio="xMidYMid meet">

<g transform="translate(0.000000,300.000000) scale(0.100000,-0.100000)"
fill="#000000" stroke="none">
<path d="M2990 2491 c0 -6 4 -13 10 -16 6 -3 7 1 4 9 -7 18 -14 21 -14 7z"/>
<path d="M1053 2325 c-27 -16 -49 -40 -62 -68 -21 -42 -21 -55 -20 -613 1
-726 7 -873 35 -910 49 -67 56 -69 275 -72 l199 -3 0 -67 c0 -74 17 -110 66
-143 28 -18 67 -19 1075 -19 1046 0 1046 0 1073 21 58 46 56 19 56 749 0 735
3 699 -58 745 -20 14 -47 21 -99 23 l-73 4 0 125 c0 136 -6 157 -60 208 l-31
30 -237 6 c-130 4 -655 7 -1167 8 l-930 1 -42 -25z m327 -495 l0 -170 100 0
c98 0 100 0 106 -25 12 -49 -6 -56 -150 -53 l-131 3 -3 208 -2 207 40 0 40 0
0 -170z m425 56 c48 -20 76 -69 73 -126 l-3 -45 -102 0 c-57 1 -103 -3 -103
-8 0 -13 22 -51 34 -59 19 -13 63 -9 76 7 8 9 29 15 55 15 38 0 43 -2 38 -20
-16 -60 -150 -92 -216 -51 -44 27 -67 75 -67 141 0 60 27 117 68 143 33 20
101 22 147 3z m314 3 c50 -17 61 -51 61 -184 0 -63 -3 -115 -7 -116 -5 0 -16
-2 -27 -4 -24 -5 -47 5 -40 16 8 14 -4 11 -32 -7 -38 -26 -121 -14 -151 20
-28 33 -29 75 -3 109 22 28 58 42 133 53 35 5 47 11 47 23 0 42 -59 55 -101
23 -47 -36 -94 -19 -70 26 24 44 120 65 190 41z m312 1 c5 0 9 -16 9 -35 0
-35 0 -35 -44 -35 -68 0 -76 -14 -76 -131 0 -98 0 -99 -27 -105 -53 -14 -58
-1 -58 157 l0 144 34 3 c19 2 37 -1 40 -7 5 -7 20 -5 46 4 22 8 46 12 53 10 8
-3 18 -5 23 -5z m280 -7 c43 -26 59 -78 59 -193 0 -91 -2 -99 -21 -105 -11 -4
-31 -4 -45 -1 -23 6 -24 9 -24 110 0 115 -9 136 -59 136 -56 0 -66 -18 -69
-133 -4 -98 -5 -105 -25 -109 -57 -10 -57 -9 -57 153 l0 149 40 0 c30 0 40 -4
40 -16 0 -13 5 -12 26 5 33 26 95 28 135 4z m-1281 -508 c30 -58 57 -105 60
-105 3 0 31 46 61 103 l55 102 42 3 42 3 -2 -203 -3 -203 -40 0 -40 0 0 123
c0 67 -2 122 -5 122 -3 0 -22 -34 -43 -75 -33 -68 -40 -75 -66 -75 -27 0 -33
7 -68 75 l-38 76 -3 -126 -3 -125 -39 0 -40 0 0 205 0 205 38 0 38 0 54 -105z
m827 30 c7 -38 18 -97 25 -130 l12 -60 26 85 c27 85 27 85 60 85 34 0 34 -1
61 -84 l27 -85 11 57 c6 31 16 83 22 115 17 94 16 92 60 92 21 0 39 -3 39 -7
0 -20 -70 -384 -75 -393 -3 -5 -21 -10 -39 -10 -32 0 -35 3 -59 68 -13 37 -28
82 -32 100 -4 18 -10 31 -13 27 -4 -4 -21 -48 -38 -98 -30 -89 -31 -92 -64
-95 -18 -2 -36 0 -41 5 -6 7 -79 369 -79 396 0 5 19 7 42 5 l43 -3 12 -70z
m-403 -110 c18 -44 36 -89 40 -100 6 -16 16 0 50 80 41 99 42 100 79 103 22 2
37 -1 37 -8 0 -11 -139 -339 -167 -393 -12 -24 -19 -27 -44 -23 -17 2 -33 6
-35 9 -2 2 7 31 21 65 l25 62 -55 131 c-30 72 -55 137 -55 145 0 11 9 14 36
12 35 -3 37 -5 68 -83z m999 74 c50 -26 57 -46 57 -176 l0 -123 -34 0 c-19 0
-37 4 -40 9 -4 5 -23 3 -45 -6 -76 -30 -161 13 -161 82 0 53 53 90 144 101 60
7 73 26 40 58 -21 21 -46 20 -77 -4 -26 -21 -87 -28 -87 -9 0 21 21 49 48 63
32 18 124 21 155 5z m154 -1 c5 -7 25 -50 44 -95 19 -46 36 -83 39 -83 3 0 23
43 44 95 39 92 41 95 72 95 18 0 35 -4 38 -9 3 -4 -34 -100 -83 -212 -77 -180
-91 -204 -112 -207 -50 -5 -55 11 -27 77 l26 59 -59 138 c-32 75 -56 141 -53
146 8 13 60 10 71 -4z"/>
<path d="M1692 1828 c-5 -7 -13 -23 -16 -35 -7 -22 -5 -23 58 -23 71 0 79 7
50 48 -17 25 -74 31 -92 10z"/>
<path d="M2055 1723 c-69 -15 -92 -42 -63 -71 34 -34 108 3 108 53 0 25 -6 27
-45 18z"/>
<path d="M2750 1197 c-46 -16 -50 -56 -7 -71 35 -13 80 18 85 57 3 23 -1 27
-20 26 -13 0 -39 -5 -58 -12z"/>
</g>
</svg>
