<svg xmlns="http://www.w3.org/2000/svg" xmlns:xlink="http://www.w3.org/1999/xlink" viewBox="0 0 32 32" id="time"><defs><linearGradient id="a" x1=".205" x2="39.518" y1="16" y2="16" gradientUnits="userSpaceOnUse"><stop offset="0" stop-color="#e93e3a"></stop><stop offset=".354" stop-color="#ed683c"></stop><stop offset=".705" stop-color="#f3903f"></stop><stop offset="1" stop-color="#fdc70c"></stop></linearGradient><linearGradient id="b" x1=".205" x2="39.518" y1="12.5" y2="12.5" xlink:href="#a"></linearGradient></defs><path fill="url(#a)" d="M16,0A16,16,0,1,0,32,16,16.019,16.019,0,0,0,16,0Zm1,29.949V28a1,1,0,0,0-2,0v1.949A14,14,0,0,1,2.051,17H4a1,1,0,0,0,0-2H2.051A14,14,0,0,1,15,2.051V4a1,1,0,0,0,2,0V2.051A14,14,0,0,1,29.949,15H28a1,1,0,0,0,0,2h1.949A14,14,0,0,1,17,29.949Z"></path><path fill="url(#b)" d="M22,15H17V9a1,1,0,0,0-2,0v7a1,1,0,0,0,1,1h6a1,1,0,0,0,0-2Z"></path></svg>